HIERARCHY
ROOT hip
{
	OFFSET 0.000000 0.000000 0.000000 
	CHANNELS 6 Xposition Yposition Zposition Xrotation Zrotation Yrotation
	JOINT abdomen
	{
		OFFSET 0.000000 3.402643 0.000000 
		CHANNELS 3 Xrotation Zrotation Yrotation
		JOINT chest
		{
			OFFSET 0.000000 8.438565 -0.680529 
			CHANNELS 3 Xrotation Zrotation Yrotation
			JOINT neck
			{
				OFFSET 0.000000 10.207942 -0.272212 
				CHANNELS 3 Xrotation Zrotation Yrotation
				JOINT head
				{
					OFFSET 0.000000 3.130431 0.000000 
					CHANNELS 3 Xrotation Zrotation Yrotation
					End Site
					{
						OFFSET 0.000000 3.130435 0.000000 
					}
				}
			}
			JOINT lCollar
			{
				OFFSET 3.470700 6.669187 -0.816635 
				CHANNELS 3 Yrotation Zrotation Xrotation
				JOINT lShldr
				{
					OFFSET 3.198488 0.000000 0.000000 
					CHANNELS 3 Zrotation Yrotation Xrotation
					JOINT lForeArm
					{
						OFFSET 10.139888 0.000000 0.000000 
						CHANNELS 3 Yrotation Zrotation Xrotation
						JOINT lHand
						{
							OFFSET 8.370511 0.000000 0.000000 
							CHANNELS 3 Zrotation Yrotation Xrotation
							End Site
							{
								OFFSET 4.083176 0.000000 0.000000 
							}
						}
					}
				}
			}
			JOINT rCollar
			{
				OFFSET -3.470700 6.669187 -0.816635 
				CHANNELS 3 Yrotation Zrotation Xrotation
				JOINT rShldr
				{
					OFFSET -3.198488 0.000000 0.000000 
					CHANNELS 3 Zrotation Yrotation Xrotation
					JOINT rForeArm
					{
						OFFSET -10.139888 0.000000 0.000000 
						CHANNELS 3 Yrotation Zrotation Xrotation
						JOINT rHand
						{
							OFFSET -8.370511 0.000000 0.000000 
							CHANNELS 3 Zrotation Yrotation Xrotation
							End Site
							{
								OFFSET -4.083176 0.000000 0.000000 
							}
						}
					}
				}
			}
		}
	}
	JOINT lThigh
	{
		OFFSET 5.308129 -1.633274 1.361059 
		CHANNELS 3 Xrotation Zrotation Yrotation
		JOINT lShin
		{
			OFFSET -2.041588 -20.007561 0.000000 
			CHANNELS 3 Xrotation Zrotation Yrotation
			JOINT lFoot
			{
				OFFSET 0.000000 -19.190928 -1.224953 
				CHANNELS 3 Xrotation Yrotation Zrotation
				End Site
				{
					OFFSET 0.000000 -2.449906 4.627600 
				}
			}
		}
	}
	JOINT rThigh
	{
		OFFSET -5.308129 -1.633274 1.361059 
		CHANNELS 3 Xrotation Zrotation Yrotation
		JOINT rShin
		{
			OFFSET 2.041588 -20.007561 0.000000 
			CHANNELS 3 Xrotation Zrotation Yrotation
			JOINT rFoot
			{
				OFFSET 0.000000 -19.190928 -1.224953 
				CHANNELS 3 Xrotation Yrotation Zrotation
				End Site
				{
					OFFSET 0.000000 -2.449906 4.627600 
				}
			}
		}
	}
}
MOTION
Frames: 6
Frame Time: 0.033333
-0.291438 52.438560 0.276102 -0.537109 -2.304691 1.757417 49.464638 -13.142562 -4.409531 -9.580076 9.365235 4.054324 51.063168 8.107644 2.471410 -80.410156 -1.347656 0.058594 2.000000 -2.000000 0.000000 -92.216797 2.431641 -31.073805 -51.976902 -1.500427 -2.129002 -27.953770 60.406582 -22.478395 -2.000000 2.000000 0.000000 83.457031 8.261718 -18.730465 40.876007 1.661120 -1.865383 18.881475 -59.116146 -23.714819 -1.814215 12.201337 -13.733631 19.675779 -4.902269 -2.095099 -6.841805 -3.117476 -4.476956 -8.103377 -12.073952 -14.887357 11.897319 5.065163 1.190454 7.149773 -1.016518 3.134252 
-0.597217 52.532635 0.548940 -0.722656 -2.119140 2.997686 51.196388 -12.736008 -5.405418 -10.527343 10.937499 4.747947 51.063168 8.107644 2.471410 -79.589844 -2.050781 0.712891 2.000000 -2.000000 0.000000 -91.884766 2.832031 -29.970707 -51.621151 -1.628385 -1.974858 -28.295469 60.241257 -22.002466 -2.000000 2.000000 0.000000 83.486328 7.324219 -18.934301 41.227585 1.651371 -1.865952 16.615215 -55.277134 -23.536976 -1.237535 12.239029 -14.754253 18.973583 -4.928199 -2.050657 -6.231457 -3.497857 -4.789785 -7.098100 -12.278263 -17.082296 11.194301 5.074797 0.948028 6.437479 -0.470149 2.745448 
-0.915587 52.582203 0.818863 -0.908203 -1.767578 4.394531 52.909344 -12.397122 -6.249567 -11.660155 12.392579 5.480611 51.063168 8.107644 2.471410 -78.984375 -2.900390 1.464844 2.000000 -2.000000 0.000000 -91.191406 3.105469 -28.446737 -51.445374 -1.628385 -1.974858 -28.637257 59.939041 -22.500963 -2.000000 2.000000 0.000000 83.701172 6.308594 -19.295799 41.755733 1.643331 -1.895757 14.639705 -53.052341 -23.268654 -0.575330 12.428496 -15.240391 18.237755 -4.530686 -2.430193 -5.340337 -4.088059 -5.002893 -6.112361 -12.492367 -18.575737 11.018132 5.084189 0.934219 6.304141 -0.667927 2.632149 
-1.244842 52.581947 1.086298 -1.064453 -1.582031 5.624731 54.580624 -11.946931 -6.947683 -12.597657 13.984375 6.064454 51.063168 8.107644 2.471410 -78.398438 -3.916015 2.080078 2.000000 -2.000000 0.000000 -91.699219 3.134766 -27.645948 -50.927219 -1.656494 -1.953379 -28.153843 59.884495 -22.097300 -2.000000 2.000000 0.000000 84.550781 5.507813 -19.842812 42.987564 1.616929 -1.946190 13.280598 -53.215546 -22.213341 0.002208 12.764268 -16.769865 16.876261 -5.000327 -1.878024 -5.149699 -4.582938 -4.898829 -5.751431 -12.640757 -18.803391 11.383300 5.115703 0.489428 5.395564 -1.392219 3.004030 
-1.583282 52.463737 1.351672 -1.064453 -1.240234 6.679820 56.107979 -11.514811 -7.930133 -13.378907 15.410156 6.787110 51.063168 8.107644 2.471410 -77.812500 -4.785156 2.626139 2.000000 -2.000000 0.000000 -92.666016 3.808594 -28.066406 -50.927219 -1.656494 -1.953379 -27.825415 60.157917 -21.382477 -2.000000 2.000000 0.000000 85.400391 4.785156 -20.215107 44.561478 1.581346 -2.007207 12.616449 -54.612022 -21.250099 0.626356 13.145891 -17.262281 15.808362 -5.018833 -1.781564 -6.266817 -5.116091 -5.017949 -6.053956 -12.766329 -19.281183 12.778849 5.037134 1.114507 5.340795 -1.944934 3.511061 
-1.929149 52.238564 1.615277 -1.064453 -1.064453 7.392579 57.578056 -11.148269 -8.460118 -14.169923 16.689455 7.226564 51.063168 8.107644 2.471410 -77.060547 -5.849609 2.656250 2.000000 -2.000000 0.000000 -93.857422 4.716797 -29.247246 -50.927235 -1.646745 -1.953949 -27.369789 60.662327 -20.136890 -2.000000 2.000000 0.000000 86.044922 4.238281 -20.605469 45.793331 1.545194 -2.058203 12.437648 -55.771843 -20.616875 1.329539 13.623836 -17.355207 14.754862 -4.891995 -1.836011 -7.827014 -5.750897 -5.825973 -6.777016 -12.789838 -18.861067 15.261115 4.989316 1.479818 4.033081 -2.745576 4.129519 
